# xmcd CD database file
#
# Track frame offsets:
#	150
#	72970
#	108747
#	177661
#	207988
#	234990
#	268691
#	287569
#	302449
#	313518
#	324542
#
# Disc length: 4732 seconds
#
# Revision: 0
# Processed by: cddbd v1.5.2PL0 Copyright (c) Steve Scherf et al.
# Submitted via: CDex 1.70beta2
#
DISCID=a0127a0b
DTITLE=Yoga Nidra - Free Body
DYEAR=1900
DGENRE=New Age
TTITLE0=01 preparazione e rilassamento - guidato
TTITLE1=02 momento della risoluzione e consapevolezza - guidato
TTITLE2=03 visualizzazione (elementi) - guidato
TTITLE3=04 conclusione (risveglio) - guidato
TTITLE4=05 ancient dream - soundtrack
TTITLE5=06 warm - soundtrack
TTITLE6=07 earth - soundtrack
TTITLE7=08 water - soundtrack
TTITLE8=09 fire - soundtrack
TTITLE9=10 air - soundtrack
TTITLE10=11 awake - soundtrack
EXTD=
EXTT0=
EXTT1=
EXTT2=
EXTT3=
EXTT4=
EXTT5=
EXTT6=
EXTT7=
EXTT8=
EXTT9=
EXTT10=
PLAYORDER=
